<?xml version="1.0" encoding="UTF-8" standalone="no"?><!DOCTYPE svg PUBLIC "-//W3C//DTD SVG 1.1//EN" "http://www.w3.org/Graphics/SVG/1.1/DTD/svg11.dtd"><svg width="100%" height="100%" viewBox="0 0 810 701" version="1.1" xmlns="http://www.w3.org/2000/svg" xmlns:xlink="http://www.w3.org/1999/xlink" xml:space="preserve" xmlns:serif="http://www.serif.com/" style="fill-rule:evenodd;clip-rule:evenodd;stroke-linecap:round;stroke-linejoin:round;stroke-miterlimit:1.5;"><g><path d="M346.997,301.812c-4.994,-28.084 -5.807,-58.01 13.213,-93.995c-0,0 54.64,-64.354 130.701,-118.991c80.021,-57.48 159.499,-83.179 200.067,-79.53c7.397,40.06 -13.961,123.526 -70.955,207.974c-50.504,74.83 -113.938,131.706 -113.938,131.706c-27.284,19.235 -60.81,25.289 -95.824,18.56c-1.142,-43.77 -18.714,-62.37 -63.264,-65.724Z" style="fill:none;stroke:#fff;stroke-width:17.91px;"/><path d="M587.686,122.612c19.378,18.752 21.467,48.077 4.661,65.444c-16.807,17.368 -46.184,16.244 -65.563,-2.507c-19.378,-18.752 -21.467,-48.077 -4.66,-65.445c16.806,-17.368 46.183,-16.244 65.562,2.508Z" style="fill:none;stroke:#fff;stroke-width:17.91px;"/><path d="M579.766,143.763c0.008,0.105 -26.105,-8.854 -39.258,-2.865c-19.852,9.04 -1.905,-14.527 11.014,-14.703c14.912,-0.204 27.875,12.178 28.244,17.568Z" style="fill:none;stroke:#fff;stroke-width:17.91px;"/><path d="M692.918,7.728c0,0 -19.99,138.753 -25.977,118.15c-13.548,-46.628 -45.323,-73.815 -81.788,-87.943c-21.539,-8.345 107.765,-30.207 107.765,-30.207Z" style="fill:#fff;"/><path d="M532.626,426.514c-20.023,29.768 -59.719,53.401 -55.531,43.233c13.194,-32.034 8.379,-65.743 -5.814,-100.14c-0,0 65.066,-43.416 94.549,-77.894c8.127,-9.504 3.219,80.648 -33.204,134.801Z" style="fill:#fff;"/><path d="M276.679,172.834c-29.688,20.415 -50.866,61.967 -40.46,57.816c32.787,-13.075 69.166,-6.921 107.219,9.239c0,0 39.697,-67.965 73.45,-98.312c9.304,-8.364 -86.203,-5.882 -140.209,31.257Z" style="fill:#fff;"/><path d="M351.62,224.357c64.381,7.064 126.886,74.095 140.654,134.878" style="fill:none;stroke:#fff;stroke-width:17.91px;"/></g><path d="M334.547,478.429c3.28,13.898 4.022,28.694 1.77,43.748c-0.487,3.255 -1.104,6.457 -1.845,9.601c15.598,3.224 30.093,9.066 43.117,17.01c22.935,-18.388 52.766,-27.528 83.595,-22.916c29.753,4.451 54.868,20.878 71.462,43.858c4.401,0.106 8.842,0.485 13.304,1.152c22.482,3.364 42.316,13.565 57.826,28.265c14.412,-15.126 35.358,-23.241 57.13,-19.983c22.769,3.406 41.034,18.44 50.012,38.422c19.494,7.738 34.007,24.605 39.47,44.92c7.234,-3.622 15.544,-5.129 24.055,-3.856c20.367,3.047 34.968,20.982 35.036,41.563l-809.479,-0l0,-676.553c1.674,-0.815 4.62,-2.116 4.62,-2.116c5.314,-1.283 10.935,-1.583 16.641,-0.729c24.417,3.653 41.183,27.065 37.415,52.25c-0.295,1.967 -0.706,3.888 -1.225,5.755c1.514,0.092 3.035,0.251 4.562,0.48c24.855,3.718 43.062,24.604 45.068,49.319c11.118,-3.845 23.231,-5.137 35.573,-3.291c41.998,6.283 70.834,46.553 64.353,89.87c-3.637,24.315 -17.634,44.455 -36.641,56.334c12.13,15.732 19.806,35.16 21.445,56.043c6.306,-2.085 13.145,-2.762 20.109,-1.72c24.418,3.653 41.183,27.066 37.415,52.25c-0.865,5.783 -2.738,11.159 -5.405,15.966l0.583,0.086c37.804,-57.404 123.198,-106.747 146.822,-71.421c24.753,37.013 -8.358,119.415 -56.788,155.693Zm49.446,-149.564c-12.712,-18.408 -119.976,47.822 -129.615,79.972c-19.012,63.418 -112.249,197.455 -112.249,197.455c0,-0 116.404,-109.869 189.451,-142.605c26.196,-11.739 65.125,-116.413 52.413,-134.822Z" style="fill:#fff;"/></svg>