<?xml version="1.0" encoding="UTF-8" standalone="no"?>
<!DOCTYPE svg PUBLIC "-//W3C//DTD SVG 1.1//EN" "http://www.w3.org/Graphics/SVG/1.1/DTD/svg11.dtd">
<svg width="100%" height="100%" viewBox="0 0 783 197" version="1.1" xmlns="http://www.w3.org/2000/svg" xmlns:xlink="http://www.w3.org/1999/xlink" xml:space="preserve" xmlns:serif="http://www.serif.com/" style="fill-rule:evenodd;clip-rule:evenodd;stroke-linejoin:round;stroke-miterlimit:2;">
    <path d="M44.651,1.153L44.305,81.085L113.126,2.048L167.72,2.068L88.22,88.097L172.824,184.076L238.622,2.929L299.116,2.898L367.109,193.397L319.83,193.611L305.935,153.316L231.711,153.513L218.243,194.056L123.806,193.172L44.694,107.294L44.651,196.725L0,196.725L0,1.153L44.651,1.153ZM268.689,45.138L243.084,115.002L292.83,115.368L268.689,45.138Z" style="fill:white;"/>
    <rect x="374.088" y="2.341" width="42.138" height="191.085" style="fill:white;"/>
    <path d="M590.631,1.463L590.631,41.553L486.9,152.846L591.202,153.759L591.449,194.079L434.068,195.248L434.368,153.336L532.398,41.553L432.32,41.553L432.32,1.463L590.631,1.463Z" style="fill:white;"/>
    <path d="M731.676,0C762.338,4.806 781.194,23.58 782.008,62.623L781.47,138.256C778.595,170.516 761.083,190.333 726.994,196.061L656.764,195.183C626.354,190.178 609.238,171.12 606.14,137.243L606.14,54.137C611.482,22.608 624.89,4.998 656.764,0L731.676,0ZM713.191,40.29L674.848,40.29C658.534,42.75 651.671,51.419 648.936,66.94L648.936,127.236C650.158,146.166 659.023,156.036 674.848,155.758L710.795,156.191C729.842,154.97 738.728,145.138 738.678,127.735L738.953,71.117C738.537,51.897 728.885,42.656 713.191,40.29Z" style="fill:white;"/>
</svg>
